<?xml version="1.0" encoding="UTF-8"?>
<!DOCTYPE svg PUBLIC "-//W3C//DTD SVG 1.1//EN" "http://www.w3.org/Graphics/SVG/1.1/DTD/svg11.dtd">
<!-- Creator: CorelDRAW 2020 (64-Bit Versión de evaluación) -->
<svg xmlns="http://www.w3.org/2000/svg" xml:space="preserve" width="42.1782mm" height="16.2569mm" version="1.1" style="shape-rendering:geometricPrecision; text-rendering:geometricPrecision; image-rendering:optimizeQuality; fill-rule:evenodd; clip-rule:evenodd"
viewBox="0 0 1038.59 400.31"
 xmlns:xlink="http://www.w3.org/1999/xlink"
 xmlns:xodm="http://www.corel.com/coreldraw/odm/2003">
 <defs>
  <style type="text/css">
   <![CDATA[
    .fil0 {fill:#A36379;fill-rule:nonzero}
   ]]>
  </style>
 </defs>
 <g id="Capa_x0020_1">
  <metadata id="CorelCorpID_0Corel-Layer"/>
  <path class="fil0" d="M1038.59 0.06c-143.49,-0.03 -286.99,-0.06 -430.47,-0.06 -4.67,0 -9.4,-0.05 -14,0.64 -60.4,9 -111.81,35.57 -152.49,81.08 -17.22,19.27 -37.22,31.06 -62.57,33.97 -11.62,1.33 -23.29,2.41 -34.97,2.8 -78.18,2.63 -156.36,5.11 -234.57,7.43 -5.87,0.17 -11.85,-0.98 -17.69,-2.03 -5.4,-0.97 -10.81,-4.12 -16.01,-3.7 -19.85,1.61 -39.64,4.08 -59.39,6.65 -13.8,0 -15.1,26.85 -16.43,33.69l0 64.24c1.1,9.59 1.18,19.43 3.64,28.67 1.45,5.47 5.71,12.84 10.31,14.31 12.22,3.91 25.23,6.04 38.08,7.11 16.51,1.38 33.22,-3.59 49.2,-3.51 87.56,0.5 175.09,3.76 262.65,5.92 29.89,0.74 54.59,10.82 74.85,34.11 25.96,29.83 57.9,52.19 94.86,67.21 37.66,15.33 77.01,21.53 117.03,21.7 72.55,0.31 145.09,-1.47 217.64,-1.4 23.13,0.02 82.59,0.03 170.33,0.04l0 -398.85z"/>
 </g>
</svg>
